HIERARCHY
ROOT Hips
{
  OFFSET -0.290897 39.403 0.120847
  CHANNELS 6 Xposition Yposition Zposition Zrotation Xrotation Yrotation
  JOINT LeftHip
  {
    OFFSET 3.43 0 0
    CHANNELS 3 Zrotation Xrotation Yrotation
    JOINT LeftKnee
    {
      OFFSET 0 -18.47 0
      CHANNELS 3 Zrotation Xrotation Yrotation
      JOINT LeftAnkle
      {
        OFFSET 0 -17.95 0
        CHANNELS 3 Zrotation Xrotation Yrotation
        End Site
        {
          OFFSET 0 -3.12 0
        }
      }
    }
  }
  JOINT RightHip
  {
    OFFSET -3.43 0 0
    CHANNELS 3 Zrotation Xrotation Yrotation
    JOINT RightKnee
    {
      OFFSET 0 -18.47 0
      CHANNELS 3 Zrotation Xrotation Yrotation
      JOINT RightAnkle
      {
        OFFSET 0 -17.95 0
        CHANNELS 3 Zrotation Xrotation Yrotation
        End Site
        {
          OFFSET 0 -3.12 0
        }
      }
    }
  }
  JOINT Chest
  {
    OFFSET 0 4.57 0
    CHANNELS 3 Zrotation Xrotation Yrotation
    JOINT Chest2
    {
      OFFSET 0 6.57 0
      CHANNELS 3 Zrotation Xrotation Yrotation
      JOINT LeftCollar
      {
        OFFSET 1.06 4.19 1.76
        CHANNELS 3 Zrotation Xrotation Yrotation
        JOINT LeftShoulder
        {
          OFFSET 5.81 0 0
          CHANNELS 3 Zrotation Xrotation Yrotation
          JOINT LeftElbow
          {
            OFFSET 0 -12.08 0
            CHANNELS 3 Zrotation Xrotation Yrotation
            JOINT LeftWrist
            {
              OFFSET 0 -9.82 0
              CHANNELS 3 Zrotation Xrotation Yrotation
              End Site
              {
                OFFSET 0 -7.37 0
              }
            }
          }
        }
      }
      JOINT RightCollar
      {
        OFFSET -1.06 4.19 1.76
        CHANNELS 3 Zrotation Xrotation Yrotation
        JOINT RightShoulder
        {
          OFFSET -6.06 0 0
          CHANNELS 3 Zrotation Xrotation Yrotation
          JOINT RightElbow
          {
            OFFSET 0 -11.08 0
            CHANNELS 3 Zrotation Xrotation Yrotation
            JOINT RightWrist
            {
              OFFSET 0 -9.82 0
              CHANNELS 3 Zrotation Xrotation Yrotation
              End Site
              {
                OFFSET 0 -7.14001 0
              }
            }
          }
        }
      }
      JOINT Neck
      {
        OFFSET 0 4.05 0
        CHANNELS 3 Zrotation Xrotation Yrotation
        JOINT Head
        {
          OFFSET 0 5.19 0
          CHANNELS 3 Zrotation Xrotation Yrotation
          End Site
          {
            OFFSET 0 4.14001 0
          }
        }
      }
    }
  }
}
MOTION
Frames:	11
Frame Time:	0.0333333
-0.32525 39.4343 0.739605 -0.96479 2.98579 12.6536 3.6942 -6.46298 -6.29407 -1.46201 8.9777 -6.60115 -1.28694 -6.26149 -0.12086 2.13254 -7.44608 26.8541 0.665579 15.4725 -36.217 6.19037 -8.22998 -0.255942 17.6863 4.37224 3.46783 -30.3407 -11.8367 6.39254 -9.10542 1.21715 -4.47075 25.1492 1.41509 -31.9805 9.2202 -11.3323 6.07487 -0.951651 -2.58511 -0.0278414 -7.26404 -0.758871 16.9443 130.821 -82.227 -142.358 -36.2992 -47.8322 16.021 15.8076 -0.63522 0.35039 21.476 -6.46541 -20.9988 -7.79551 -5.8237 -14.0666 
-0.306823 39.4362 0.768012 -0.837784 2.96093 12.9434 3.53252 -6.34368 -6.19806 -1.43735 8.86405 -6.87342 -1.17996 -6.21234 -0.121065 2.0261 -7.332 26.7597 0.588042 15.5638 -36.3328 6.37805 -8.31896 -0.247453 17.9362 3.89225 3.50143 -30.6625 -11.3831 6.50901 -9.07921 1.21768 -4.50136 25.1482 1.63012 -31.2114 9.27975 -11.256 6.51485 -0.760363 -2.56679 -0.0295578 -7.43083 -0.772043 16.7017 128.753 -81.9617 -142.743 -36.2158 -45.8228 14.1405 15.5809 -0.732218 0.358568 22.0278 -5.90894 -21.1233 -8.09082 -6.17438 -13.9595 
-0.280671 39.4424 0.78411 -0.716034 2.98401 12.9915 3.41858 -6.10959 -5.9668 -1.45131 8.44933 -7.22261 -1.09437 -6.01852 -0.121369 1.87287 -7.28789 26.6593 0.531057 15.5768 -36.1918 6.40548 -8.31068 -0.249799 18.0199 2.9504 3.51182 -30.5127 -10.4281 6.61871 -9.05262 1.21882 -4.54041 24.9765 1.91177 -30.0599 9.53338 -11.4987 6.42194 -1.16398 -2.34512 -0.0429982 -7.70299 -0.772275 16.0329 126.458 -81.6027 -142.902 -35.4321 -42.8044 11.9331 15.3321 -1.29265 0.428171 21.8972 -5.56297 -20.8884 -8.06321 -6.22022 -13.7162 
-0.247594 39.4469 0.796895 -0.599771 2.8654 12.5825 3.29676 -5.85745 -5.36309 -1.38394 8.41781 -7.36299 -0.977316 -6.05299 -0.121844 1.76673 -7.16772 27.1461 0.605525 15.6072 -36.2221 6.40966 -8.31883 -0.256552 18.2094 1.66105 3.54822 -30.201 -8.73233 6.87314 -9.015 1.20763 -4.42841 24.7885 1.8676 -29.1464 9.49993 -11.6845 6.69807 -0.920857 -2.59998 -0.0360635 -7.99249 -0.77865 15.45 127.067 -81.583 -140.331 -34.2352 -39.8207 11.9076 15.9514 -1.40566 0.46151 21.4947 -5.51355 -20.3513 -8.00054 -6.32657 -13.2939 
-0.207707 39.4519 0.791322 -0.565275 2.76013 11.9692 3.17037 -5.82181 -5.1519 -1.27641 8.776 -6.92715 -0.835829 -6.29253 -0.122474 1.66245 -7.05713 27.3056 0.612361 15.4693 -35.6791 6.45509 -8.22513 -0.26132 18.2326 -0.01422 3.58852 -29.4464 -6.53795 7.12415 -9.13751 1.21254 -4.38229 24.4601 1.72005 -28.337 9.62775 -11.8103 6.58551 -0.686789 -2.58857 -0.0268281 -8.39766 -0.764953 14.4084 128.838 -81.8908 -135.663 -32.7462 -35.3824 8.41855 13.1808 -3.20098 0.587878 20.761 -5.74578 -19.467 -7.74294 -6.09262 -12.6487 
-0.160562 39.4507 0.782876 -0.38112 2.6093 11.2778 2.93733 -5.51146 -4.84024 -1.1746 8.73755 -6.63374 -0.786125 -6.33873 -0.123158 1.50986 -6.99335 27.4109 0.547395 15.6144 -35.1098 6.71037 -8.26435 -0.260233 17.8135 -1.58981 3.42328 -28.5026 -4.48602 7.10072 -9.20632 1.21268 -4.32334 24.2323 1.64367 -27.5511 9.64925 -11.6844 6.33421 -0.736637 -2.91307 -0.0241757 -8.65944 -0.723867 13.3825 133.355 -83.1495 -128.479 -31.5858 -31.3236 7.2405 11.4526 -5.01981 0.6926 20.1914 -5.90433 -18.5195 -7.57873 -5.85102 -11.8744 
-0.107157 39.4478 0.771175 -0.22486 2.48106 10.205 2.71106 -5.27357 -4.55122 -1.10979 8.87564 -5.82026 -0.715297 -6.50237 -0.123955 1.23499 -7.07896 27.2191 0.71897 15.7475 -33.9284 6.40544 -8.39805 -0.246062 16.9478 -3.32016 3.28752 -26.9395 -2.3168 6.99997 -8.95983 1.18337 -4.15896 23.4083 1.65601 -27.1969 9.84455 -11.8346 6.85092 -0.728454 -2.36007 -0.0270039 -8.84299 -0.621369 11.7946 143.447 -84.334 -118.058 -29.6517 -29.5636 7.76248 12.1365 -4.42223 0.67073 19.5771 -6.05079 -17.3391 -7.6501 -5.59013 -10.8372 
-0.0626283 39.4504 0.763576 -0.227946 2.30778 9.07412 2.6956 -5.07826 -3.87055 -1.03907 9.16175 -5.40524 -0.626718 -6.7564 -0.124852 1.25806 -6.96223 27.3666 0.553458 15.6328 -32.9574 6.50138 -8.26312 -0.25648 16.2538 -4.96547 3.00742 -25.5986 -0.320323 6.71996 -8.85058 1.166 -4.02448 22.8868 1.7084 -26.911 10.0316 -11.5637 6.83083 -1.02153 -2.57306 -0.0397665 -8.82657 -0.497499 10.2985 167.446 -86.1388 -94.299 -27.7766 -27.686 8.0392 11.1163 -4.57771 0.629107 19.2397 -5.55953 -16.0799 -7.48373 -6.20203 -9.68851 
-0.0213639 39.4482 0.741494 -0.257774 2.22164 7.72668 2.64592 -4.97791 -3.48157 -0.923438 9.45909 -4.51269 -0.666242 -7.01892 -0.125817 1.2464 -7.01355 28.1019 0.696456 15.5206 -32.4442 6.35456 -8.22342 -0.258367 15.0531 -6.29434 2.65858 -23.7401 1.14499 6.21171 -8.6716 1.14569 -3.90765 22.1494 1.97429 -26.7472 10.2107 -11.4091 7.26865 -0.898498 -2.55527 -0.0348375 -8.67897 -0.38058 9.05733 -133.91 -86.3489 -36.3529 -26.367 -26.4268 9.47954 11.2767 -4.18221 0.599195 19.1806 -5.00305 -14.7989 -7.6135 -6.58808 -8.36774 
0.0110709 39.44 0.723977 -0.320323 2.13621 6.37779 2.66748 -5.00529 -3.13886 -0.867343 10.004 -3.63025 -0.691531 -7.40959 -0.126874 1.29878 -7.09695 27.9303 0.57844 15.4856 -30.9727 6.20609 -8.19853 -0.260327 13.6032 -6.72224 2.18065 -21.7849 1.51095 5.46298 -8.47018 1.13187 -3.89648 21.6316 2.58633 -26.732 10.2438 -11.4481 6.89268 -0.417661 -3.11892 -0.0182471 -8.57127 -0.218328 7.14364 -100.752 -83.3323 -5.60037 -23.8394 -26.4431 11.729 10.2181 -3.60119 0.4907 19.4449 -4.7426 -13.7586 -8.2478 -6.59121 -7.12345 
0.0366809 39.4408 0.70554 -0.601431 2.19947 4.65648 2.95285 -5.13969 -2.00436 -0.804272 10.5511 -2.94211 -0.737571 -7.82861 -0.127987 1.50151 -7.18065 28.7234 0.638339 14.9905 -30.0959 5.8623 -7.951 -0.279259 12.9503 -7.28791 1.97162 -20.5036 1.89741 5.04249 -8.19575 1.11185 -3.86288 21.2116 2.96152 -26.9657 10.4357 -11.5722 7.01459 -0.733406 -2.44342 -0.0277207 -8.43703 -0.0978211 5.74444 -87.8986 -78.6084 5.71371 -22.252 -25.8763 13.3155 9.99405 -2.82088 0.411688 19.6518 -3.87638 -12.7112 -8.30205 -7.46337 -5.97089 
